<?xml version="1.0" standalone="no"?><!DOCTYPE svg PUBLIC "-//W3C//DTD SVG 1.1//EN" "http://www.w3.org/Graphics/SVG/1.1/DTD/svg11.dtd"><svg class="icon" width="200px" height="200.00px" viewBox="0 0 1024 1024" version="1.1" xmlns="http://www.w3.org/2000/svg"><path d="M512 0C228.430769 0 0 228.430769 0 512s228.430769 512 512 512 512-228.430769 512-512S795.569231 0 512 0z m173.292308 291.446154h-63.015385c-15.753846-3.938462-35.446154 3.938462-47.261538 15.753846-7.876923 11.815385-11.815385 27.569231-11.815385 43.323077v74.830769h118.153846l-15.753846 118.153846h-102.4v303.261539h-122.092308v-303.261539H338.707692v-118.153846h102.4V334.769231c-3.938462-43.323077 11.815385-82.707692 43.323077-114.215385 31.507692-27.569231 70.892308-43.323077 110.276923-39.384615 27.569231-3.938462 59.076923 0 90.584616 3.938461v106.338462z" fill="#080405" /></svg>